<svg
            xmlns="http://www.w3.org/2000/svg"
            viewBox="0 0 48 48"
            className="w-5 h-5"
          >
            <g fill="none">
              <circle
                cx="24"
                cy="24"
                r="20"
                fill="#2F88FF"
                stroke="#000"
                stroke-linecap="round"
                stroke-linejoin="round"
                stroke-width="4"
              />
              <path
                fill="#2F88FF"
                d="M20 16H25H27C29.2091 16 31 17.7909 31 20C31 22.2091 29.2091 24 27 24H20V16Z"
              />
              <path
                stroke="#fff"
                stroke-linecap="round"
                stroke-linejoin="round"
                stroke-width="4"
                d="M20 16V24H27C29.2091 24 31 22.2091 31 20V20C31 17.7909 29.2091 16 27 16H25M20 16H16M20 16V12M20 16H25M25 16V12"
              />
              <path
                fill="#2F88FF"
                d="M20 24H29C31.2091 24 33 25.7909 33 28C33 30.2091 31.2091 32 29 32H25H20V24Z"
              />
              <path
                stroke="#fff"
                stroke-linecap="round"
                stroke-linejoin="round"
                stroke-width="4"
                d="M20 32V24H29C31.2091 24 33 25.7909 33 28V28C33 30.2091 31.2091 32 29 32H25M20 32V36M20 32H16H25M20 32H25M25 32V36"
              />
            </g>
          </svg>